<?xml version="1.0" encoding="UTF-8"?>
<svg width="92px" height="92px" viewBox="0 0 92 92" version="1.1" xmlns="http://www.w3.org/2000/svg" xmlns:xlink="http://www.w3.org/1999/xlink">
    <!-- Generator: Sketch 63.1 (92452) - https://sketch.com -->
    <title>Shape</title>
    <desc>Created with Sketch.</desc>
    <g id="Page-1" stroke="none" stroke-width="1" fill="none" fill-rule="evenodd">
        <g id="noun_gem_1503719" fill="#3CB371" fill-rule="nonzero">
            <path d="M91.493721,12.1468258 C91.4909897,12.0562649 91.4816437,11.9657536 91.4663544,11.8753128 C91.4590988,11.8326626 91.4513626,11.7907658 91.4414749,11.7491131 C91.4369964,11.7302456 91.4352951,11.7111836 91.4302749,11.6923905 C91.4099273,11.6162644 91.383728,11.5427933 91.3550033,11.4706116 C91.3427352,11.4399624 91.3288116,11.4107247 91.3150787,11.3808785 C91.2771988,11.297865 91.233818,11.2184048 91.1854248,11.1420365 C91.1665802,11.1124325 91.1474915,11.083561 91.1271896,11.0550538 C91.0638961,10.9658805 90.9959716,10.8803588 90.9191894,10.8029672 C90.9172897,10.8010932 90.9156341,10.7990724 90.9137878,10.7971984 C90.8337402,10.7171537 90.7447891,10.6467982 90.6520385,10.5812389 C90.6295928,10.5654146 90.607048,10.5503704 90.583969,10.5354473 C90.4890288,10.4740507 90.3902892,10.4180586 90.284973,10.3731672 C90.2836607,10.3726074 90.2824858,10.371853 90.2812193,10.3712932 C90.197769,10.3359453 90.1116865,10.3055631 90.0227812,10.2815839 L54.6645966,0.7487092 C53.9749718,0.5631075 53.2395745,0.7596154 52.7351571,1.2640314 C52.7088662,1.2902989 52.6870538,1.3196583 52.6624185,1.3471432 C52.6440126,1.3642326 52.6227838,1.3762346 52.6048662,1.3941279 L1.2163873,52.782608 C1.1982751,52.8006706 1.1862002,52.822071 1.1689644,52.8406448 C1.1409197,52.8656959 1.1110249,52.8880424 1.0841484,52.9148483 C0.5795379,53.4194565 0.3830299,54.1552429 0.5688267,54.844284 L10.1017008,90.2026672 C10.1249743,90.2890625 10.1539927,90.373024 10.1879778,90.4542389 C10.1920672,90.4639282 10.1977148,90.4726181 10.2019024,90.4822388 C10.2441645,90.5788117 10.2951899,90.6700516 10.3514748,90.7578125 C10.3679314,90.7834015 10.3845826,90.8083267 10.4021111,90.8330917 C10.466672,90.9242324 10.5359078,91.0115585 10.6144915,91.0904083 C10.6156598,91.0915985 10.6166335,91.0929641 10.6178017,91.0941314 C10.6975546,91.1738586 10.7861681,91.2440719 10.8785792,91.3093871 C10.9032155,91.3268432 10.9281445,91.3432464 10.9535599,91.3595809 C11.0395441,91.4147033 11.1290341,91.4644317 11.2234907,91.5060882 C11.2353706,91.5113449 11.2461796,91.5182113 11.2581568,91.5232543 C11.3403435,91.5575561 11.4251595,91.5868377 11.5125075,91.6101607 C11.5359755,91.6164168 11.5596381,91.6187819 11.5832034,91.6241606 C11.6133901,91.6310271 11.6435777,91.6366499 11.6741544,91.6421507 C11.791689,91.663307 11.9095155,91.6777418 12.0270501,91.6777418 L89.5057031,91.6777418 C90.607048,91.6777418 91.5000008,90.78479 91.5000008,89.6834488 L91.5000008,12.2090759 C91.5000008,12.1877499 91.4943542,12.1679821 91.493721,12.1468258 Z M27.2919579,32.3479729 L35.024807,61.0299759 L6.3427315,53.2971039 L27.2919579,32.3479729 Z M53.1173668,6.5225172 L60.8503113,35.2044706 L32.1682358,27.4715948 L53.1173668,6.5225172 Z M31.1477203,31.3274078 L59.829895,39.0603561 L38.8806686,60.0095825 L31.1477203,31.3274078 Z M63.1255417,41.4055481 L84.6886368,84.8665695 L41.2259102,63.3051758 L63.1255417,41.4055481 Z M38.2499542,66.2811813 L81.4033584,87.6891555 L16.8419819,87.6891555 L38.2499542,66.2811813 Z M66.101593,38.4295921 L87.5114136,17.019722 L87.5114136,81.5818787 L66.101593,38.4295921 Z M85.6552048,13.2350445 L64.7061768,34.1840782 L56.9732247,5.5020981 L85.6552048,13.2350445 Z M34.0043869,64.8858643 L13.0551624,85.8350906 L5.3222151,57.1529121 L34.0043869,64.8858643 Z" id="Shape" transform="translate(46.000001, 46.178867) rotate(90.000000) translate(-46.000001, -46.178867) "></path>
        </g>
    </g>
</svg>